<svg width="259" height="240" viewBox="0 0 259 240" fill="none" xmlns="http://www.w3.org/2000/svg">
<rect width="259" height="240" fill="#F5F5F5"/>
<ellipse cx="129.5" cy="120" rx="129.5" ry="120" fill="#FBC251"/>
<path d="M207 138.5C220.35 139.441 227.237 137.161 239.5 133C229.699 137.458 225.329 139.838 223 143.5C235.531 148.467 240.568 146.281 250 143.5C239.823 147.025 234.081 149.002 227 152.5C236.805 160.111 243.598 161.22 256 162.5C241.406 160.538 234 162.5 221.5 162.5C209 162.5 256 176 256 176C240.3 173.528 232.039 172.582 220.5 173.5" stroke="black"/>
<path d="M251 101L256.875 100.437M256.5 124.5H259" stroke="black"/>
<path d="M183 186C191.66 193.321 195.847 199.314 199 209.5L195.5 189C209.414 191.94 216.371 195.506 228.5 202.5C221.861 195.471 215.09 188.233 211.5 184.5C207.91 180.767 246.418 195.012 246.5 192.5C236.932 187.814 230 186.5 222 180.5" stroke="black"/>
<path d="M53 101.441L41.5 97.5C38.6007 86.0508 39.7062 80.8496 46 73.5H53L62.5 68.5C65.2972 67.3183 75.4637 70.1903 78.5 73.5C86.0433 82.0489 91.4989 85.3293 103 89C103 89 111.676 92.3748 117.5 92.5C123.895 92.6374 133.5 89 133.5 89C132.402 85.1437 133.877 82.8397 140 78.5C149.173 76.812 159.677 78.73 180 83L222 97.5L250.5 101.441C256 103.5 259 117.5 256 124.5L218 131.5L215.5 136M53 101.441C74.5186 111.875 87.6612 116.373 113 122C123.246 128.429 131.583 128.243 150.5 122C160.209 129.213 164.788 134.498 171.5 146L182.5 156C183.294 164.492 180.997 168.676 171.5 175C168.593 190.223 163.23 194.722 146.5 195C135.878 189.908 129.968 182.034 119.5 160L126 175C126 175 115.001 170.79 103 151.5C91.089 145.447 85 137.5 72.5 136C60 134.5 55.5 134 55.5 134C44.0815 124.497 42.9915 120.48 46 106.5L53 101.441Z" stroke="black"/>
<path d="M256.5 125L258.5 126.5" stroke="black"/>
<path d="M215.5 209.5L195.5 189.5" stroke="black"/>
<path d="M244 184.5C192.675 170.807 123.091 194 111 184.5C98.9091 175 106.5 152 106.5 152C120.5 111.5 107.142 95.4831 69 92" stroke="black"/>
<path d="M70 88C92.0626 89.065 101.343 93.0352 112.5 106C127.701 121.665 95.0559 177.944 118.5 180C141.944 182.056 196.485 165.446 244 177.5" stroke="black"/>
<path d="M73.5 137C88.2159 183.401 102.104 196.81 139.5 192.5M82 140C82 140 88.5299 172.451 104.5 182C115.083 188.328 135.5 188 135.5 188" stroke="black"/>
<path d="M160 94C151.922 92.5732 147.574 92.7397 140 94L155.5 104C160.615 101.087 164.11 100.758 170.5 100.5C166.673 97.7341 164.354 96.3275 160 94Z" fill="#FF0000" stroke="black"/>
<path d="M194.5 87.5H216C221.209 87.5927 221.972 88.2907 217.5 90.4374M211.5 93C214.064 91.9757 216.055 91.131 217.5 90.4374M256.5 100.5V98L248.5 96.5C243.395 95.7387 240.844 95.9939 237 98C245.028 90.6162 240.849 90.5876 224.5 94.75M219 96.5L224.5 94.75M224.5 94.75C224.5 94.75 226.5 93 224.5 91C222.5 89 217.5 90.4374 217.5 90.4374" stroke="black"/>
<path d="M133.5 108C144.044 108.976 149.956 109.524 160.5 110.5C173.169 113.537 179.162 117.086 188 126.5C190.797 130.404 191.227 132.438 191.5 136" stroke="black"/>
<path d="M202.5 138C204.582 149.152 205 164 202.5 167C200 170 198.843 170.657 196.5 173" stroke="black"/>
<path d="M189.5 180.5C188 182 187.5 183.5 185 185.5C175.019 189.23 169.537 190.905 160 193" stroke="black"/>
<path d="M37.5 55.9878L40.5161 61.1271L40.6388 61.3361L40.8789 61.3693L47.2798 62.2545L42.7496 66.1989L42.5352 66.3855L42.586 66.6652L43.5992 72.2513L37.7023 69.6427L37.5 69.5533L37.2977 69.6427L31.4008 72.2513L32.414 66.6652L32.4648 66.3855L32.2504 66.1989L27.7202 62.2545L34.1211 61.3693L34.3612 61.3361L34.4839 61.1271L37.5 55.9878Z" stroke="black"/>
<path d="M170.5 206.988L173.516 212.127L173.639 212.336L173.879 212.369L180.28 213.255L175.75 217.199L175.535 217.386L175.586 217.665L176.599 223.251L170.702 220.643L170.5 220.553L170.298 220.643L164.401 223.251L165.414 217.665L165.465 217.386L165.25 217.199L160.72 213.255L167.121 212.369L167.361 212.336L167.484 212.127L170.5 206.988Z" stroke="black"/>
<path d="M80.5 186.988L83.5161 192.127L83.6388 192.336L83.8789 192.369L90.2798 193.255L85.7496 197.199L85.5352 197.386L85.586 197.665L86.5992 203.251L80.7023 200.643L80.5 200.553L80.2977 200.643L74.4008 203.251L75.414 197.665L75.4648 197.386L75.2504 197.199L70.7202 193.255L77.1211 192.369L77.3612 192.336L77.4839 192.127L80.5 186.988Z" stroke="black"/>
<path d="M144.5 44.9878L147.516 50.1271L147.639 50.3361L147.879 50.3693L154.28 51.2545L149.75 55.1989L149.535 55.3855L149.586 55.6652L150.599 61.2513L144.702 58.6427L144.5 58.5533L144.298 58.6427L138.401 61.2513L139.414 55.6652L139.465 55.3855L139.25 55.1989L134.72 51.2545L141.121 50.3693L141.361 50.3361L141.484 50.1271L144.5 44.9878Z" stroke="black"/>
<path d="M73.5 26.9878L76.5161 32.1271L76.6388 32.3361L76.8789 32.3693L83.2798 33.2545L78.7496 37.1989L78.5352 37.3855L78.586 37.6652L79.5992 43.2513L73.7023 40.6427L73.5 40.5533L73.2977 40.6427L67.4008 43.2513L68.414 37.6652L68.4648 37.3855L68.2504 37.1989L63.7202 33.2545L70.1211 32.3693L70.3612 32.3361L70.4839 32.1271L73.5 26.9878Z" stroke="black"/>
</svg>
